<mxfile host="65bd71144e">
    <diagram name="Página-1" id="xasGz37oJKi1Bsmr6xXT">
        <mxGraphModel dx="2283" dy="487" grid="1" gridSize="10" guides="1" tooltips="1" connect="1" arrows="1" fold="1" page="1" pageScale="1" pageWidth="827" pageHeight="1169" math="0" shadow="0">
            <root>
                <mxCell id="0"/>
                <mxCell id="1" parent="0"/>
                <mxCell id="EnoG8UHb5zYuxF4KxrJ3-3" value="" style="edgeStyle=orthogonalEdgeStyle;rounded=0;orthogonalLoop=1;jettySize=auto;html=1;" parent="1" source="EnoG8UHb5zYuxF4KxrJ3-1" target="EnoG8UHb5zYuxF4KxrJ3-2" edge="1">
                    <mxGeometry relative="1" as="geometry"/>
                </mxCell>
                <mxCell id="EnoG8UHb5zYuxF4KxrJ3-7" style="edgeStyle=orthogonalEdgeStyle;rounded=0;orthogonalLoop=1;jettySize=auto;html=1;exitX=0.75;exitY=1;exitDx=0;exitDy=0;entryX=0.5;entryY=0;entryDx=0;entryDy=0;" parent="1" source="EnoG8UHb5zYuxF4KxrJ3-1" target="EnoG8UHb5zYuxF4KxrJ3-5" edge="1">
                    <mxGeometry relative="1" as="geometry"/>
                </mxCell>
                <mxCell id="EnoG8UHb5zYuxF4KxrJ3-1" value="RottenPotato" style="rounded=0;whiteSpace=wrap;html=1;" parent="1" vertex="1">
                    <mxGeometry x="200" width="120" height="60" as="geometry"/>
                </mxCell>
                <mxCell id="EnoG8UHb5zYuxF4KxrJ3-26" style="edgeStyle=orthogonalEdgeStyle;rounded=0;orthogonalLoop=1;jettySize=auto;html=1;exitX=0.5;exitY=1;exitDx=0;exitDy=0;entryX=0.5;entryY=0;entryDx=0;entryDy=0;" parent="1" source="EnoG8UHb5zYuxF4KxrJ3-2" target="EnoG8UHb5zYuxF4KxrJ3-25" edge="1">
                    <mxGeometry relative="1" as="geometry"/>
                </mxCell>
                <mxCell id="EnoG8UHb5zYuxF4KxrJ3-2" value="Iniciar Sesión" style="rounded=0;whiteSpace=wrap;html=1;" parent="1" vertex="1">
                    <mxGeometry x="90" y="130" width="120" height="60" as="geometry"/>
                </mxCell>
                <mxCell id="EnoG8UHb5zYuxF4KxrJ3-8" style="edgeStyle=orthogonalEdgeStyle;rounded=0;orthogonalLoop=1;jettySize=auto;html=1;" parent="1" source="EnoG8UHb5zYuxF4KxrJ3-5" target="EnoG8UHb5zYuxF4KxrJ3-9" edge="1">
                    <mxGeometry relative="1" as="geometry">
                        <mxPoint x="390" y="270" as="targetPoint"/>
                    </mxGeometry>
                </mxCell>
                <mxCell id="EnoG8UHb5zYuxF4KxrJ3-5" value="Crear Cuenta" style="rounded=0;whiteSpace=wrap;html=1;" parent="1" vertex="1">
                    <mxGeometry x="330" y="130" width="120" height="60" as="geometry"/>
                </mxCell>
                <mxCell id="EnoG8UHb5zYuxF4KxrJ3-11" value="" style="edgeStyle=orthogonalEdgeStyle;rounded=0;orthogonalLoop=1;jettySize=auto;html=1;" parent="1" source="EnoG8UHb5zYuxF4KxrJ3-9" target="EnoG8UHb5zYuxF4KxrJ3-10" edge="1">
                    <mxGeometry relative="1" as="geometry"/>
                </mxCell>
                <mxCell id="EnoG8UHb5zYuxF4KxrJ3-9" value="Introducir Usuario Contraseña" style="rounded=0;whiteSpace=wrap;html=1;" parent="1" vertex="1">
                    <mxGeometry x="330" y="240" width="120" height="60" as="geometry"/>
                </mxCell>
                <mxCell id="EnoG8UHb5zYuxF4KxrJ3-18" style="edgeStyle=orthogonalEdgeStyle;rounded=0;orthogonalLoop=1;jettySize=auto;html=1;exitX=0;exitY=0.5;exitDx=0;exitDy=0;entryX=1;entryY=0.5;entryDx=0;entryDy=0;" parent="1" source="EnoG8UHb5zYuxF4KxrJ3-10" target="EnoG8UHb5zYuxF4KxrJ3-14" edge="1">
                    <mxGeometry relative="1" as="geometry"/>
                </mxCell>
                <mxCell id="EnoG8UHb5zYuxF4KxrJ3-23" style="edgeStyle=orthogonalEdgeStyle;rounded=0;orthogonalLoop=1;jettySize=auto;html=1;exitX=1;exitY=0.5;exitDx=0;exitDy=0;entryX=1;entryY=0;entryDx=0;entryDy=0;" parent="1" source="EnoG8UHb5zYuxF4KxrJ3-10" target="EnoG8UHb5zYuxF4KxrJ3-2" edge="1">
                    <mxGeometry relative="1" as="geometry">
                        <mxPoint x="680" y="410" as="targetPoint"/>
                    </mxGeometry>
                </mxCell>
                <mxCell id="EnoG8UHb5zYuxF4KxrJ3-10" value="Validar cuenta" style="rhombus;whiteSpace=wrap;html=1;rounded=0;" parent="1" vertex="1">
                    <mxGeometry x="550" y="320" width="80" height="80" as="geometry"/>
                </mxCell>
                <mxCell id="EnoG8UHb5zYuxF4KxrJ3-17" style="edgeStyle=orthogonalEdgeStyle;rounded=0;orthogonalLoop=1;jettySize=auto;html=1;entryX=0.447;entryY=1.033;entryDx=0;entryDy=0;entryPerimeter=0;" parent="1" source="EnoG8UHb5zYuxF4KxrJ3-14" target="EnoG8UHb5zYuxF4KxrJ3-9" edge="1">
                    <mxGeometry relative="1" as="geometry"/>
                </mxCell>
                <mxCell id="EnoG8UHb5zYuxF4KxrJ3-14" value="Mensaje Error" style="rounded=0;whiteSpace=wrap;html=1;" parent="1" vertex="1">
                    <mxGeometry x="340" y="420" width="90" height="40" as="geometry"/>
                </mxCell>
                <mxCell id="12" style="edgeStyle=none;html=1;entryX=0;entryY=0.5;entryDx=0;entryDy=0;" edge="1" parent="1" source="EnoG8UHb5zYuxF4KxrJ3-22" target="3">
                    <mxGeometry relative="1" as="geometry">
                        <mxPoint x="-90" y="480" as="targetPoint"/>
                        <Array as="points">
                            <mxPoint x="-90" y="470"/>
                        </Array>
                    </mxGeometry>
                </mxCell>
                <mxCell id="EnoG8UHb5zYuxF4KxrJ3-22" value="Imprimir Menú Admin" style="rounded=0;whiteSpace=wrap;html=1;" parent="1" vertex="1">
                    <mxGeometry x="-150" y="330" width="120" height="60" as="geometry"/>
                </mxCell>
                <mxCell id="EnoG8UHb5zYuxF4KxrJ3-27" style="edgeStyle=orthogonalEdgeStyle;rounded=0;orthogonalLoop=1;jettySize=auto;html=1;entryX=0.5;entryY=0;entryDx=0;entryDy=0;" parent="1" source="EnoG8UHb5zYuxF4KxrJ3-25" target="EnoG8UHb5zYuxF4KxrJ3-22" edge="1">
                    <mxGeometry relative="1" as="geometry">
                        <mxPoint x="-25" y="330" as="targetPoint"/>
                        <Array as="points">
                            <mxPoint x="-90" y="270"/>
                        </Array>
                    </mxGeometry>
                </mxCell>
                <mxCell id="EnoG8UHb5zYuxF4KxrJ3-25" value="Comprobar Administrador" style="rhombus;whiteSpace=wrap;html=1;" parent="1" vertex="1">
                    <mxGeometry x="20" y="225" width="100" height="90" as="geometry"/>
                </mxCell>
                <mxCell id="3" value="Imprimir menú convencional" style="rounded=0;whiteSpace=wrap;html=1;" vertex="1" parent="1">
                    <mxGeometry x="10" y="440" width="120" height="60" as="geometry"/>
                </mxCell>
                <mxCell id="7" style="edgeStyle=orthogonalEdgeStyle;rounded=0;orthogonalLoop=1;jettySize=auto;html=1;entryX=0.5;entryY=0;entryDx=0;entryDy=0;exitX=1;exitY=0.5;exitDx=0;exitDy=0;" edge="1" parent="1" source="EnoG8UHb5zYuxF4KxrJ3-25">
                    <mxGeometry relative="1" as="geometry">
                        <mxPoint x="220" y="330" as="targetPoint"/>
                        <mxPoint x="330" y="270" as="sourcePoint"/>
                        <Array as="points">
                            <mxPoint x="220" y="270"/>
                        </Array>
                    </mxGeometry>
                </mxCell>
            </root>
        </mxGraphModel>
    </diagram>
</mxfile>